<?xml version="1.0" encoding="UTF-8"?>
<svg xmlns="http://www.w3.org/2000/svg"
  fill="currentColor"
  viewBox="0 0 24 24">
  <path
    d="m7.75,10.397c0,.331-.268.599-.599.599h-2.27c-.319,0-.614-.173-.769-.452-.155-.28-.146-.621.023-.892l2.151-3.452h-1.686c-.331,0-.599-.269-.599-.599s.268-.599.599-.599h2.282c.315,0,.606.171.759.446.153.276.145.613-.022.88l-2.163,3.47h1.695c.331,0,.599.269.599.599Zm1.85-5.396c-.331,0-.599.269-.599.599v4.8c0,.331.268.599.599.599s.599-.269.599-.599v-4.8c0-.331-.268-.599-.599-.599Zm14.401,0v11.344c0,1.336-.52,2.591-1.464,3.535l-2.657,2.657c-.944.944-2.199,1.464-3.535,1.464H5c-2.757,0-5-2.243-5-5V5C0,2.243,2.243,0,5,0h14c2.757,0,5,2.243,5,5ZM5,22h10v-4c0-1.654,1.346-3,3-3h4V5c0-1.654-1.346-3-3-3H5c-1.654,0-3,1.346-3,3v14c0,1.654,1.346,3,3,3Zm16.122-3.535c.401-.401.673-.915.798-1.465h-3.92c-.551,0-1,.448-1,1v3.922c.55-.122,1.056-.392,1.464-.8l2.657-2.657Zm-7.655-9.563l-.717.003v1.471c0,.345-.28.625-.625.625s-.625-.28-.625-.625v-4.819c0-.345.28-.625.625-.625h1.342c1.109,0,2.012.891,2.012,1.985s-.902,1.985-2.012,1.985Zm.762-1.985c0-.398-.349-.735-.762-.735h-.715l.005,1.473.71-.003c.413,0,.762-.336.762-.735Z"/>
</svg>
